<svg width="109" height="142" viewBox="0 0 109 142" fill="none" xmlns="http://www.w3.org/2000/svg">
<path d="M48.4275 45.0667C48.6996 43.2709 48.6725 37.5026 48.4549 35.6252C48.2916 34.2375 47.5298 33.2037 46.0061 33.503C45.081 33.6662 44.5638 34.4281 44.4278 35.326C44.1285 37.1218 44.183 42.8898 44.4007 44.7672C44.7272 47.6786 48.0194 47.5971 48.4275 45.0667Z" fill="white"/>
<path d="M62.4128 52.6595C63.7461 50.9453 65.3241 49.4761 66.8478 47.9524C67.8545 46.9457 70.8202 45.286 68.9701 43.3269C68.317 42.6467 67.0655 42.4564 66.2221 42.9462C65.4602 43.3815 60.4267 48.415 59.7464 49.3129C57.8962 51.7889 59.7192 53.9383 62.4128 52.6595Z" fill="white"/>
<path d="M30.2247 52.1691C32.864 54.0465 35.0405 51.9516 33.408 49.3395C33.1087 48.8498 27.422 43.1087 27.0139 42.891C26.3881 42.5101 26.116 42.4556 25.3814 42.6189C23.7488 42.9726 23.4769 44.5778 24.3204 45.9111C24.6197 46.4008 29.7622 51.8154 30.2247 52.1691Z" fill="white"/>
<path d="M81.3771 135.754L11.4505 135.781C10.2805 135.727 8.51176 135.101 7.6955 134.285C4.2944 130.884 6.82498 124.98 11.8042 125.306H81.0232C88.0975 125.17 88.1521 135.346 81.3771 135.754ZM53.8418 95.3764C53.9778 92.5195 54.0595 89.0368 57.5694 88.4927V119.211L54.0049 118.885C54.0321 111.158 53.4336 103.131 53.8418 95.3764ZM38.9856 91.3496V119.211H35.6119V88.4927C36.7002 88.2478 38.9856 90.6422 38.9856 91.3496ZM49.461 91.3496V119.211H43.72V90.6694C43.72 89.5538 45.788 88.6832 46.9035 88.8192C47.9102 88.9553 49.461 90.3973 49.461 91.3496ZM48.4545 84.2482C47.0668 83.9489 45.5158 83.9761 44.1282 84.3298C43.1759 84.5475 41.7066 85.6901 41.1352 85.7173C40.6454 85.7717 37.2443 82.8332 35.9655 83.4046L43.3664 66.372L49.2978 66.5351L56.5626 83.4046C55.0661 83.1053 52.8078 85.5541 51.9371 85.7173C51.393 85.799 49.4068 84.4387 48.4545 84.2482ZM31.9932 24.2529C34.5508 23.0829 37.6254 22.8652 39.3395 20.4436C41.2713 17.6683 39.6932 13.1788 41.1081 9.72327C42.659 5.91405 48.0189 5.07068 50.8214 7.9276C54.3858 11.5736 51.3113 17.9132 54.1954 21.1239C55.3926 22.4843 60.3717 23.7903 62.5212 24.9331C72.6973 30.4293 78.8737 41.0678 79.8532 52.4955V119.211H62.3036V84.6019L47.5564 51.0261C45.4885 49.9922 44.9173 51.3255 44.1011 52.9036C39.013 62.8076 35.6933 74.589 30.5509 84.6019V119.211H13.0012L12.9741 55.2164C13.3006 42.3466 20.1301 29.749 31.9932 24.2529ZM86.2473 120L85.9481 51.8424C84.4244 36.279 74.3027 21.3143 58.9569 16.852C59.5555 9.20636 56.0727 0.826004 47.5564 0.0641632C37.6524 -0.860947 33.6257 8.39015 33.7617 16.9065C17.8718 22.3483 7.91333 37.2586 6.9066 53.856V119.375C6.77056 120.191 4.53949 121.17 3.69602 121.905C-3.54152 128.326 0.512487 140.897 10.1172 141.849L82.7102 141.822C94.1651 140.353 96.369 125.088 86.2473 120Z" fill="white"/>
<path d="M19.259 68.1957C20.6195 68.4133 26.6871 68.4405 27.9387 68.1412C28.9183 67.9235 29.7345 67.0257 29.8434 66.019C29.6801 64.849 28.8909 64.087 27.6938 64.0054C26.5238 63.9238 19.0143 64.0054 18.2796 64.223C16.375 64.8216 16.8919 67.8419 19.259 68.1957Z" fill="white"/>
<path d="M64.8883 68.1412C66.1943 68.4405 72.5068 68.4133 73.9217 68.1957C76.3432 67.8147 76.3976 64.7401 74.1937 64.2504C73.051 63.9783 66.0855 63.9783 64.8883 64.2504C62.6844 64.7401 62.6844 67.6514 64.8883 68.1412Z" fill="white"/>
<path d="M98.5727 11.9266H100.586L103.688 19.7627L106.708 11.9266H108.722V21.5857H107.47V13.042H107.416L103.987 21.5857H103.307L99.879 13.042H99.8245V21.5857H98.5727V11.9266ZM92.4781 12.9876H89.3491V11.9266H96.8586V12.9876H93.7296V21.5857H92.4781V12.9876Z" fill="white"/>
</svg>
